<svg width="62" height="62" viewBox="0 0 62 62" fill="none" xmlns="http://www.w3.org/2000/svg">
<path d="M47.4688 0H14.5312C6.50586 0 0 6.50586 0 14.5312V47.4688C0 55.4941 6.50586 62 14.5312 62H47.4688C55.4941 62 62 55.4941 62 47.4688V14.5312C62 6.50586 55.4941 0 47.4688 0Z" fill="#F4F2ED"/>
<path d="M8.29492 14.8037L30.8365 6.78125L53.9715 14.6795L50.2326 44.4898L30.8365 55.2188L11.7553 44.6291L8.29492 14.8037Z" fill="#E23237"/>
<path d="M53.9719 14.6797L30.8369 6.78125V55.2188L50.233 44.4898L53.9719 14.6797Z" fill="#B52E31"/>
<path d="M30.8711 12.4424L16.8242 43.6846L22.0661 43.5785L24.8966 36.519H37.46L40.5358 43.6332L45.5338 43.7391L30.8711 12.4424ZM30.9057 22.4719L35.6587 32.3972H26.7614L30.9195 22.4719H30.9057Z" fill="white"/>
</svg>
