<svg width="62" height="62" viewBox="0 0 62 62" fill="none" xmlns="http://www.w3.org/2000/svg">
<path d="M47.4688 0H14.5312C6.50586 0 0 6.50586 0 14.5312V47.4688C0 55.4941 6.50586 62 14.5312 62H47.4688C55.4941 62 62 55.4941 62 47.4688V14.5312C62 6.50586 55.4941 0 47.4688 0Z" fill="#2396ED"/>
<path d="M34.1937 29.5767H39.2111V25.0371H34.1937V29.5767ZM28.2209 29.5767H33.2381V25.0371H28.2209V29.5767ZM22.3672 29.5767H27.3846V25.0371H22.3672V29.5767ZM16.5136 29.5767H21.4118V25.0371H16.5138L16.5136 29.5767ZM10.5407 29.5767H15.5581V25.0371H10.5407V29.5767ZM16.5138 24.0814H21.4116V19.5421H16.5138V24.0814ZM22.3675 24.0814H27.3846V19.5421H22.3672L22.3675 24.0814ZM28.2209 24.0814H33.2381V19.5421H28.2209V24.0814ZM28.2209 18.5862H33.2381V14.0469H28.2209V18.5862ZM55.2187 27.5462C55.2187 27.5462 53.0684 25.5152 48.6484 26.2321C48.1706 22.7676 44.4673 20.7368 44.4673 20.7368C44.4673 20.7368 41.0031 24.9179 43.5116 29.5769C42.795 29.9353 41.6003 30.4132 39.8084 30.4132H6.95708C6.3596 32.683 6.3596 47.7347 22.8451 47.7347C34.6716 47.7347 43.5116 42.2397 47.6928 32.2049C53.9046 32.6827 55.2187 27.5462 55.2187 27.5462Z" fill="white"/>
</svg>
