<svg width="249" height="249" viewBox="0 0 249 249" fill="none" xmlns="http://www.w3.org/2000/svg">
<path d="M186.75 15.5625L140.062 62.25L150.956 73.1437L178.969 45.1313V147.844C178.969 186.75 147.844 217.875 108.938 217.875C96.4875 217.875 84.8156 214.762 75.4781 209.316C78.5906 210.094 81.7031 210.094 85.5938 210.094C119.831 210.094 147.844 182.081 147.844 147.844C147.844 113.606 119.831 85.5938 85.5938 85.5938C51.3562 85.5938 23.3438 113.606 23.3438 147.844C23.3438 195.309 61.4719 233.438 108.938 233.438C156.403 233.438 194.531 195.309 194.531 147.844V45.1313L222.544 73.1437L233.438 62.25L186.75 15.5625ZM38.9062 152.513V147.844C38.9062 122.166 59.9156 101.156 85.5938 101.156C111.272 101.156 132.281 122.166 132.281 147.844C132.281 173.522 111.272 194.531 85.5938 194.531C61.4719 194.531 41.2406 175.856 38.9062 152.513Z" fill="white"/>
<path d="M77.7222 128.778L75.9736 133.579C73.6827 139.876 72.5372 143.024 70.2768 145.321C68.0164 147.619 64.919 148.783 58.7241 151.112L54 152.889L58.7241 154.666C64.919 156.995 68.0164 158.162 70.2768 160.456C72.5372 162.75 73.6827 165.902 75.9736 172.198L77.7222 177L79.4709 172.198C81.7618 165.902 82.9106 162.754 85.1676 160.456C87.4246 158.159 90.5254 156.995 96.7203 154.666L101.444 152.889L96.7203 151.112C90.5254 148.783 87.428 147.619 85.1676 145.321C82.9072 143.024 81.7618 139.876 79.4709 133.579L77.7222 128.778ZM104.833 115L104.084 117.056C103.102 119.757 102.61 121.107 101.644 122.089C100.675 123.074 99.3467 123.573 96.6898 124.569L94.6667 125.333L96.6932 126.095C99.3467 127.093 100.675 127.593 101.641 128.575C102.61 129.56 103.102 130.91 104.081 133.61L104.833 135.667L105.582 133.61C106.565 130.91 107.056 129.56 108.022 128.578C108.991 127.593 110.32 127.093 112.977 126.098L115 125.333L112.973 124.572C110.32 123.573 108.991 123.074 108.026 122.092C107.056 121.107 106.565 119.757 105.586 117.056L104.833 115Z" stroke="white" stroke-width="4" stroke-linecap="round" stroke-linejoin="round"/>
</svg>
