<svg width="62" height="62" viewBox="0 0 62 62" fill="none" xmlns="http://www.w3.org/2000/svg">
<path d="M47.4688 0H14.5312C6.50586 0 0 6.50586 0 14.5312V47.4688C0 55.4941 6.50586 62 14.5312 62H47.4688C55.4941 62 62 55.4941 62 47.4688V14.5312C62 6.50586 55.4941 0 47.4688 0Z" fill="#049789"/>
<path d="M30.8789 9.92969C19.3128 9.92969 9.92969 19.3128 9.92969 30.8789C9.92969 42.4451 19.3128 51.8281 30.8789 51.8281C42.4451 51.8281 51.8281 42.4451 51.8281 30.8789C51.8281 19.3128 42.4451 9.92969 30.8789 9.92969ZM29.7874 47.6719V34.5313H22.4825L32.9779 14.0859V27.2265H40.0101L29.7874 47.6719Z" fill="white"/>
</svg>
