<svg width="62" height="62" viewBox="0 0 62 62" fill="none" xmlns="http://www.w3.org/2000/svg">
<path d="M47.4688 0H14.5312C6.50586 0 0 6.50586 0 14.5312V47.4688C0 55.4941 6.50586 62 14.5312 62H47.4688C55.4941 62 62 55.4941 62 47.4688V14.5312C62 6.50586 55.4941 0 47.4688 0Z" fill="#E14E1D"/>
<path d="M11.625 9.20312L13.7102 32.5967H40.5228L39.6231 42.6306L30.9901 44.9648L22.3733 42.634L21.7971 36.1913H14.0323L15.1428 48.6109L30.9884 53.0119L46.8541 48.6109L48.9812 24.8618H20.7855L20.0776 16.9398H49.6821L50.375 9.20312H11.625Z" fill="white"/>
<path d="M31 9.20312H11.625L13.7102 32.5967H31V24.8618H20.7855L20.0776 16.9398H31V9.20312ZM31 44.9614L30.9901 44.9648L22.3733 42.634L21.7971 36.1913H14.0323L15.1428 48.6109L30.9884 53.0119L31.0002 53.0085L31 44.9614Z" fill="#EBEBEB"/>
</svg>
