<svg width="62" height="62" viewBox="0 0 62 62" fill="none" xmlns="http://www.w3.org/2000/svg">
<path d="M47.4688 0H14.5312C6.50586 0 0 6.50586 0 14.5312V47.4688C0 55.4941 6.50586 62 14.5312 62H47.4688C55.4941 62 62 55.4941 62 47.4688V14.5312C62 6.50586 55.4941 0 47.4688 0Z" fill="#242938"/>
<path d="M29.4137 6.79427C29.3095 6.80371 28.978 6.83689 28.6796 6.86039C21.8 7.48063 15.3559 11.1929 11.2743 16.8983C9.00187 20.0707 7.54802 23.6692 6.99898 27.481C6.80498 28.8115 6.78125 29.2046 6.78125 31.0084C6.78125 32.8125 6.80498 33.2055 6.99922 34.5359C8.31527 43.6315 14.788 51.2737 23.5663 54.1051C25.1383 54.6118 26.7954 54.9574 28.6798 55.1657C29.4139 55.2461 32.5861 55.2461 33.3202 55.1657C36.573 54.8058 39.3286 54.001 42.0464 52.6135C42.463 52.4006 42.5436 52.3437 42.4867 52.2965C42.4489 52.2679 40.6732 49.8862 38.5427 47.0076L34.6696 41.7756L29.8162 34.5928C27.1458 30.6439 24.9489 27.4146 24.9298 27.4146C24.9109 27.41 24.892 30.6013 24.8826 34.4981C24.8683 41.321 24.8637 41.5956 24.7784 41.7565C24.6554 41.9885 24.5607 42.0832 24.3616 42.1876C24.2103 42.2631 24.0776 42.2774 23.3626 42.2774H22.5435L22.3256 42.1401C22.1906 42.0556 22.081 41.9362 22.0083 41.7945L21.909 41.5814L21.9187 32.0881L21.9327 22.59L22.0795 22.4052C22.1553 22.3059 22.3164 22.178 22.43 22.1165C22.6239 22.0218 22.6998 22.0124 23.5188 22.0124C24.4849 22.0124 24.6457 22.0501 24.8969 22.3248C24.9678 22.4006 27.5956 26.3589 30.7396 31.1268C33.9226 35.9529 37.1076 40.7777 40.2944 45.6012L44.1297 51.411L44.3239 51.2831C46.0425 50.1657 47.8609 48.5748 49.3002 46.9175C52.3636 43.3995 54.3382 39.1098 55.001 34.5359C55.195 33.2055 55.2188 32.8125 55.2188 31.0084C55.2188 29.2044 55.195 28.8115 55.001 27.481C53.6847 18.3854 47.212 10.7434 38.4337 7.91196C36.8854 7.40991 35.2378 7.06431 33.3911 6.85603C32.9365 6.80856 29.8067 6.75673 29.4139 6.79451M39.3286 21.4442C39.5558 21.5578 39.7406 21.7755 39.8069 22.0027C39.8447 22.1259 39.8541 24.7585 39.8447 30.6912L39.8304 39.2045L38.3296 36.9033L36.8239 34.6022V28.4139C36.8239 24.4129 36.8428 22.1637 36.8711 22.0547C36.9469 21.7898 37.1126 21.5815 37.34 21.4582C37.534 21.3589 37.6052 21.3493 38.3485 21.3493C39.0493 21.3493 39.1724 21.3589 39.3286 21.4442Z" fill="white"/>
</svg>
