<svg width="62" height="62" viewBox="0 0 62 62" fill="none" xmlns="http://www.w3.org/2000/svg">
<path d="M47.4688 0H14.5312C6.50586 0 0 6.50586 0 14.5312V47.4688C0 55.4941 6.50586 62 14.5312 62H47.4688C55.4941 62 62 55.4941 62 47.4688V14.5312C62 6.50586 55.4941 0 47.4688 0Z" fill="#242938"/>
<path d="M31.0007 35.5897C33.4962 35.5897 35.5189 33.5667 35.5189 31.0715C35.5189 28.5762 33.4962 26.5532 31.0007 26.5532C28.5052 26.5532 26.4824 28.5762 26.4824 31.0715C26.4824 33.5667 28.5054 35.5897 31.0007 35.5897Z" fill="#00D8FF"/>
<path d="M31.0005 21.8848C37.0668 21.8848 42.7023 22.7552 46.9514 24.2182C52.071 25.9806 55.2188 28.6522 55.2188 31.0714C55.2188 33.5924 51.8829 36.4305 46.385 38.252C42.2285 39.6291 36.759 40.3479 31.0005 40.3479C25.0964 40.3479 19.5055 39.6732 15.3021 38.2368C9.98418 36.4192 6.78125 33.5444 6.78125 31.0714C6.78125 28.6718 9.7868 26.0208 14.8345 24.2611C19.0994 22.7741 24.8739 21.8848 30.9995 21.8848H31.0005Z" stroke="#00D8FF" stroke-width="2.15813"/>
<path d="M23.0036 26.5045C26.0344 21.2495 29.6035 16.8025 32.9936 13.8526C37.0779 10.2981 40.965 8.90596 43.0604 10.1142C45.2442 11.3736 46.0364 15.6816 44.8678 21.3542C43.9851 25.6426 41.8747 30.7396 38.9977 35.7282C36.0481 40.8427 32.6708 45.3489 29.3269 48.2716C25.0957 51.9703 21.0049 53.3089 18.8627 52.0735C16.784 50.8756 15.9892 46.9471 16.9865 41.6952C17.8291 37.2576 19.9436 31.8111 23.0027 26.5045H23.0036Z" stroke="#00D8FF" stroke-width="2.15813"/>
<path d="M23.0103 35.7416C19.9711 30.4924 17.9018 25.1783 17.0382 20.7681C15.9985 15.4542 16.7335 11.3915 18.8272 10.1796C21.0091 8.91639 25.1367 10.3816 29.4675 14.2271C32.7419 17.1343 36.1041 21.5075 38.9893 26.4912C41.9474 31.6009 44.1644 36.7776 45.0268 41.1341C46.1181 46.6473 45.2349 50.8596 43.0946 52.0984C41.0181 53.3006 37.218 52.0279 33.1659 48.5409C29.7424 45.595 26.0795 41.043 23.0103 35.7416Z" stroke="#00D8FF" stroke-width="2.15813"/>
</svg>
