<svg width="62" height="62" viewBox="0 0 62 62" fill="none" xmlns="http://www.w3.org/2000/svg">
<path d="M47.4688 0H14.5312C6.50586 0 0 6.50586 0 14.5312V47.4688C0 55.4941 6.50586 62 14.5312 62H47.4688C55.4941 62 62 55.4941 62 47.4688V14.5312C62 6.50586 55.4941 0 47.4688 0Z" fill="#242938"/>
<path d="M44.0781 12.1094H52.7969L31 49.709L9.20312 12.1094H25.8777L31 20.8281L36.0133 12.1094H44.0781Z" fill="#41B883"/>
<path d="M9.20312 12.1094L31 49.709L52.7969 12.1094H44.0781L31 34.6691L17.8129 12.1094H9.20312Z" fill="#41B883"/>
<path d="M17.8125 12.1094L30.9996 34.7781L44.0777 12.1094H36.0129L30.9996 20.8281L25.8773 12.1094H17.8125Z" fill="white"/>
</svg>
